<svg width="20" height="10" viewBox="0 0 20 10" fill="none" xmlns="http://www.w3.org/2000/svg">
<path d="M0.0234189 0.975002C0.0233328 0.79285 0.0815663 0.614762 0.190756 0.463258C0.299945 0.311753 0.455186 0.193639 0.636846 0.123851C0.818506 0.054063 1.01843 0.0357374 1.21132 0.0711891C1.40422 0.106641 1.58143 0.194278 1.72055 0.323019L9.7433 7.7474L17.7595 0.316039C17.9458 0.14324 18.1987 0.0460946 18.4624 0.0459774C18.7261 0.0458602 18.9791 0.142781 19.1657 0.315415C19.3522 0.488048 19.4571 0.722255 19.4572 0.966514C19.4573 1.21077 19.3526 1.44507 19.1662 1.61787L10.7538 9.41662C10.4859 9.66438 10.1228 9.80362 9.74425 9.80379C9.36568 9.80396 9.0025 9.66504 8.73437 9.41752L0.315004 1.62625C0.222465 1.54085 0.149065 1.43935 0.0990246 1.32759C0.048984 1.21582 0.0232894 1.096 0.0234189 0.975002Z" fill="black"/>
</svg>
