<svg width="24" height="24" viewBox="0 0 24 24" fill="none" xmlns="http://www.w3.org/2000/svg">
<g clip-path="url(#clip0_1531_1910)">
<path d="M12.0015 9.09131C10.368 9.09131 9.03906 10.4202 9.03906 12.0538C9.03906 13.6873 10.368 15.0163 12.0015 15.0163C13.6351 15.0163 14.964 13.6873 14.964 12.0538C14.964 10.4202 13.6351 9.09131 12.0015 9.09131ZM12.0015 13.61C11.1435 13.61 10.4453 12.9118 10.4453 12.0537C10.4453 11.1957 11.1435 10.4975 12.0015 10.4975C12.8597 10.4975 13.5577 11.1956 13.5577 12.0537C13.5577 12.9119 12.8596 13.61 12.0015 13.61Z" fill="#08BBB7"/>
<path d="M23.2969 15.8156H19.4813V9.39478L19.9934 9.62761C20.0846 9.66923 20.1837 9.69079 20.284 9.69084C20.5512 9.69084 20.8066 9.53761 20.9245 9.27848C21.0852 8.92495 20.9289 8.50814 20.5753 8.34745L12.7031 4.76911V2.15934H15.0126C15.4008 2.15934 15.7157 1.84453 15.7157 1.45622V0.703125C15.7157 0.314812 15.4008 0 15.0126 0H12C11.6117 0 11.2969 0.314812 11.2969 0.703125V4.76911L3.42473 8.34741C3.07125 8.50809 2.91488 8.92491 3.07566 9.27844C3.23625 9.63197 3.65316 9.7882 4.00664 9.62756L4.5188 9.39473V15.8156H0.703125C0.314859 15.8156 0 16.1304 0 16.5187V23.2969C0 23.6852 0.314859 24 0.703125 24H23.2969C23.6852 24 24 23.6852 24 23.2969V16.5187C24 16.1304 23.6852 15.8156 23.2969 15.8156ZM4.51875 22.5938H1.40625V17.2219H4.51875V22.5938ZM13.5562 22.5938H10.4438V19.4813H13.5562V22.5938ZM18.075 16.5187V22.5938H14.9625V18.7782C14.9625 18.3899 14.6477 18.075 14.2594 18.075H9.74072C9.35245 18.075 9.03759 18.3899 9.03759 18.7782V22.5938H5.92509V16.5187H5.925V8.75555L12 5.99419L18.075 8.75555V16.5187ZM22.5938 22.5938H19.4813V17.2219H22.5938V22.5938Z" fill="#08BBB7"/>
</g>
<defs>
<clipPath id="clip0_1531_1910">
<rect width="24" height="24" fill="white"/>
</clipPath>
</defs>
</svg>
