<svg width="24" height="24" viewBox="0 0 24 24" fill="none" xmlns="http://www.w3.org/2000/svg">
<g clip-path="url(#clip0_1531_1907)">
<path d="M15.5303 14.4697C15.6709 14.6104 15.7499 14.8011 15.7499 15C15.7499 15.1989 15.6709 15.3896 15.5303 15.5303C15.3896 15.6709 15.1989 15.7499 15 15.7499C14.8011 15.7499 14.6104 15.6709 14.4697 15.5303L11.4698 12.5303C11.3291 12.3896 11.25 12.1989 11.25 12V7.5C11.25 7.30109 11.329 7.11032 11.4697 6.96967C11.6103 6.82902 11.8011 6.75 12 6.75C12.1989 6.75 12.3897 6.82902 12.5303 6.96967C12.671 7.11032 12.75 7.30109 12.75 7.5V11.6895L15.5303 14.4697ZM23.25 12C23.25 18.2033 18.2033 23.25 12 23.25C5.79675 23.25 0.75 18.2033 0.75 12C0.75 5.79675 5.79675 0.75 12 0.75C18.2033 0.75 23.25 5.79675 23.25 12ZM21.7118 12.75H21C20.8011 12.75 20.6103 12.671 20.4697 12.5303C20.329 12.3897 20.25 12.1989 20.25 12C20.25 11.8011 20.329 11.6103 20.4697 11.4697C20.6103 11.329 20.8011 11.25 21 11.25H21.7118C21.5549 9.18896 20.7434 7.23199 19.3958 5.66475L18.894 6.1665C18.8245 6.23639 18.7419 6.29185 18.6509 6.3297C18.5599 6.36754 18.4623 6.38703 18.3638 6.38703C18.2652 6.38703 18.1676 6.36754 18.0766 6.3297C17.9856 6.29185 17.903 6.23639 17.8335 6.1665C17.7638 6.09691 17.7085 6.01426 17.6708 5.92327C17.633 5.83228 17.6136 5.73475 17.6136 5.63625C17.6136 5.53775 17.633 5.44022 17.6708 5.34923C17.7085 5.25824 17.7638 5.17559 17.8335 5.106L18.3353 4.60425C16.7679 3.2567 14.811 2.44524 12.75 2.28825V3C12.75 3.19891 12.671 3.38968 12.5303 3.53033C12.3897 3.67098 12.1989 3.75 12 3.75C11.8011 3.75 11.6103 3.67098 11.4697 3.53033C11.329 3.38968 11.25 3.19891 11.25 3V2.28825C9.18896 2.44508 7.23199 3.25656 5.66475 4.60425L6.1665 5.106C6.23613 5.17563 6.29137 5.2583 6.32905 5.34928C6.36674 5.44026 6.38614 5.53777 6.38614 5.63625C6.38614 5.73473 6.36674 5.83224 6.32905 5.92322C6.29137 6.0142 6.23613 6.09687 6.1665 6.1665C6.09687 6.23613 6.0142 6.29137 5.92322 6.32905C5.83224 6.36674 5.73473 6.38614 5.63625 6.38614C5.53777 6.38614 5.44026 6.36674 5.34928 6.32905C5.2583 6.29137 5.17563 6.23613 5.106 6.1665L4.60425 5.66475C3.2567 7.23207 2.44524 9.18899 2.28825 11.25H3C3.19891 11.25 3.38968 11.329 3.53033 11.4697C3.67098 11.6103 3.75 11.8011 3.75 12C3.75 12.1989 3.67098 12.3897 3.53033 12.5303C3.38968 12.671 3.19891 12.75 3 12.75H2.28825C2.44508 14.811 3.25656 16.768 4.60425 18.3353L5.106 17.8335C5.17563 17.7639 5.2583 17.7086 5.34928 17.6709C5.44026 17.6333 5.53777 17.6139 5.63625 17.6139C5.73473 17.6139 5.83224 17.6333 5.92322 17.6709C6.0142 17.7086 6.09687 17.7639 6.1665 17.8335C6.23613 17.9031 6.29137 17.9858 6.32905 18.0768C6.36674 18.1678 6.38614 18.2653 6.38614 18.3638C6.38614 18.4622 6.36674 18.5597 6.32905 18.6507C6.29137 18.7417 6.23613 18.8244 6.1665 18.894L5.66475 19.3958C7.23207 20.7433 9.18899 21.5548 11.25 21.7118V21C11.25 20.8011 11.329 20.6103 11.4697 20.4697C11.6103 20.329 11.8011 20.25 12 20.25C12.1989 20.25 12.3897 20.329 12.5303 20.4697C12.671 20.6103 12.75 20.8011 12.75 21V21.7118C14.811 21.5549 16.768 20.7434 18.3353 19.3958L17.8335 18.894C17.7639 18.8244 17.7086 18.7417 17.6709 18.6507C17.6333 18.5597 17.6139 18.4622 17.6139 18.3638C17.6139 18.2653 17.6333 18.1678 17.6709 18.0768C17.7086 17.9858 17.7639 17.9031 17.8335 17.8335C17.9031 17.7639 17.9858 17.7086 18.0768 17.6709C18.1678 17.6333 18.2653 17.6139 18.3638 17.6139C18.4622 17.6139 18.5597 17.6333 18.6507 17.6709C18.7417 17.7086 18.8244 17.7639 18.894 17.8335L19.3958 18.3353C20.7433 16.7679 21.5548 14.811 21.7118 12.75Z" fill="#08BBB7"/>
</g>
<defs>
<clipPath id="clip0_1531_1907">
<rect width="24" height="24" fill="white"/>
</clipPath>
</defs>
</svg>
