<svg width="16" height="16" viewBox="0 0 16 16" fill="none" xmlns="http://www.w3.org/2000/svg">
<path d="M12 11.5C11.7033 11.5 11.4133 11.588 11.1666 11.7528C10.92 11.9176 10.7277 12.1519 10.6142 12.426C10.5006 12.7001 10.4709 13.0017 10.5288 13.2926C10.5867 13.5836 10.7296 13.8509 10.9393 14.0607C11.1491 14.2704 11.4164 14.4133 11.7074 14.4712C11.9983 14.5291 12.2999 14.4994 12.574 14.3858C12.8481 14.2723 13.0824 14.08 13.2472 13.8334C13.412 13.5867 13.5 13.2967 13.5 13C13.4996 12.6023 13.3414 12.221 13.0602 11.9398C12.779 11.6586 12.3977 11.5004 12 11.5ZM12 13.5C11.9011 13.5 11.8044 13.4707 11.7222 13.4157C11.64 13.3608 11.5759 13.2827 11.5381 13.1913C11.5002 13.1 11.4903 12.9994 11.5096 12.9025C11.5289 12.8055 11.5765 12.7164 11.6464 12.6464C11.7164 12.5765 11.8055 12.5289 11.9025 12.5096C11.9994 12.4903 12.1 12.5002 12.1913 12.5381C12.2827 12.5759 12.3608 12.64 12.4157 12.7222C12.4707 12.8044 12.5 12.9011 12.5 13C12.4999 13.1326 12.4471 13.2597 12.3534 13.3534C12.2597 13.4471 12.1326 13.4999 12 13.5Z" fill="#08BBB7"/>
<path d="M9 11.5H5C4.86739 11.5 4.74021 11.4473 4.64645 11.3536C4.55268 11.2598 4.5 11.1326 4.5 11C4.5 10.8674 4.55268 10.7402 4.64645 10.6464C4.74021 10.5527 4.86739 10.5 5 10.5H13C13.1183 10.5 13.2327 10.458 13.323 10.3816C13.4132 10.3051 13.4735 10.1992 13.493 10.0825L14.493 4.0825C14.505 4.01087 14.5012 3.93748 14.482 3.86745C14.4627 3.79742 14.4284 3.73242 14.3815 3.67699C14.3346 3.62155 14.2762 3.57699 14.2103 3.54643C14.1444 3.51587 14.0726 3.50002 14 3.5H6C5.86739 3.5 5.74021 3.55268 5.64645 3.64645C5.55268 3.74022 5.5 3.86739 5.5 4C5.5 4.13261 5.55268 4.25979 5.64645 4.35355C5.74021 4.44732 5.86739 4.5 6 4.5H13.41L12.5765 9.5H6.3465L3.4685 1.8245C3.43275 1.72913 3.36873 1.64696 3.28501 1.58897C3.20128 1.53098 3.10185 1.49994 3 1.5H2C1.86739 1.5 1.74021 1.55268 1.64645 1.64645C1.55268 1.74021 1.5 1.86739 1.5 2C1.5 2.13261 1.55268 2.25979 1.64645 2.35355C1.74021 2.44732 1.86739 2.5 2 2.5H2.6535L5.2785 9.5H5C4.63574 9.49744 4.28307 9.62795 4.00825 9.86704C3.73342 10.1061 3.55534 10.4373 3.50745 10.7984C3.45956 11.1595 3.54517 11.5257 3.74818 11.8282C3.9512 12.1306 4.25766 12.3485 4.61 12.441C4.51615 12.6668 4.47885 12.9122 4.50132 13.1557C4.5238 13.3992 4.60538 13.6335 4.73898 13.8384C4.87257 14.0432 5.05415 14.2124 5.26795 14.3311C5.48174 14.4498 5.72129 14.5146 5.96579 14.5198C6.21029 14.5249 6.45235 14.4703 6.67096 14.3607C6.88957 14.2511 7.07812 14.0897 7.22023 13.8907C7.36235 13.6917 7.45373 13.461 7.48645 13.2186C7.51918 12.9763 7.49224 12.7296 7.408 12.5H9C9.13261 12.5 9.25979 12.4473 9.35355 12.3536C9.44732 12.2598 9.5 12.1326 9.5 12C9.5 11.8674 9.44732 11.7402 9.35355 11.6464C9.25979 11.5527 9.13261 11.5 9 11.5ZM6.5 13C6.5 13.0989 6.47068 13.1956 6.41573 13.2778C6.36079 13.36 6.2827 13.4241 6.19134 13.4619C6.09998 13.4998 5.99945 13.5097 5.90245 13.4904C5.80546 13.4711 5.71637 13.4235 5.64645 13.3536C5.57652 13.2836 5.5289 13.1945 5.50961 13.0975C5.49031 13.0006 5.50022 12.9 5.53806 12.8087C5.5759 12.7173 5.63999 12.6392 5.72221 12.5843C5.80444 12.5293 5.90111 12.5 6 12.5C6.13257 12.5001 6.25967 12.5529 6.35341 12.6466C6.44715 12.7403 6.49987 12.8674 6.5 13Z" fill="#08BBB7"/>
</svg>
