<svg width="226" height="39" viewBox="0 0 226 39" fill="none" xmlns="http://www.w3.org/2000/svg">
<path d="M62.4016 9V29H58.9291V12.0075H50.4735V29H47V9H62.4016Z" fill="black"/>
<path d="M65.5273 29V9H72.7751C74.2598 9 75.5057 9.28637 76.5128 9.85912C77.5257 10.4324 78.2897 11.2197 78.8059 12.2226C79.3285 13.218 79.589 14.3519 79.589 15.621C79.589 16.9034 79.3285 18.0437 78.8059 19.0391C78.2834 20.0351 77.513 20.8203 76.4932 21.3925C75.474 21.9589 74.2191 22.2426 72.7286 22.2426H67.9241V19.2632H72.2567C73.1243 19.2632 73.8355 19.1073 74.3893 18.795C74.9425 18.4827 75.3514 18.0526 75.6161 17.5057C75.8867 16.9589 76.0214 16.3306 76.0214 15.621C76.0214 14.912 75.8867 14.2864 75.6161 13.7459C75.3514 13.2059 74.9398 12.7858 74.3797 12.4868C73.8255 12.1798 73.1116 12.0276 72.2372 12.0276H69.0284V29H65.5273Z" fill="black"/>
<path d="M81.5664 9H85.0389V22.6326H85.2185L94.3071 9H97.4504V29H93.9483V15.3769H93.7877L84.6716 29H81.5664V9Z" fill="black"/>
<path d="M99.3516 12.0376V9H114.773V12.0376H108.798V29H105.325V12.0376H99.3516Z" fill="black"/>
<path d="M130.955 29H127.444V12.0276H124.235C123.367 12.0276 122.653 12.1607 122.093 12.4276C121.539 12.6881 121.127 13.0722 120.857 13.5799C120.593 14.0814 120.46 14.6869 120.46 15.3965C120.46 16.1061 120.593 16.7048 120.857 17.1935C121.121 17.6749 121.53 18.0437 122.084 18.2968C122.644 18.5446 123.355 18.6682 124.216 18.6682H128.916V21.6762H123.745C122.259 21.6762 121.008 21.4216 119.989 20.9143C118.969 20.4002 118.195 19.6742 117.667 18.7369C117.144 17.7927 116.884 16.6788 116.884 15.3965C116.884 14.121 117.142 13.004 117.658 12.0466C118.179 11.0834 118.947 10.3352 119.961 9.80102C120.973 9.26684 122.219 9 123.698 9H130.955V29ZM120.96 19.9379H124.783L120.083 29H116.176L120.96 19.9379Z" fill="black"/>
<path d="M147.312 9V29H143.877V9H147.312ZM132.523 29L138.658 18.4928L132.873 9H137.167L141.734 17.4476H149.539L154.032 9H158.307L152.607 18.4827L158.665 29H154.523L150.039 20.8065H141.197L136.629 29H132.523Z" fill="black"/>
<path d="M160.262 29V9H172.833V12.0376H163.764V17.4667H172.182V20.5043H163.764V25.9624H172.908V29H160.262Z" fill="black"/>
<path d="M175.34 29V9H178.84V17.4667H187.797V9H191.308V29H187.797V20.5043H178.84V29H175.34Z" fill="black"/>
<path d="M194.055 9H197.527V22.6326H197.706L206.795 9H209.937V29H206.436V15.3769H206.275L197.159 29H194.055V9Z" fill="black"/>
<path d="M212.688 29V9H225.257V12.0376H216.188V17.4667H224.607V20.5043H216.188V25.9624H225.333V29H212.688Z" fill="black"/>
<path fill-rule="evenodd" clip-rule="evenodd" d="M20.2356 2.79529C20.2356 3.53664 19.9411 4.24762 19.4168 4.77184C18.8926 5.29605 18.1815 5.59056 17.4401 5.59057C16.8872 5.59058 16.3467 5.42664 15.887 5.1195C15.4273 4.81235 15.0689 4.37579 14.8573 3.86502C14.6457 3.35425 14.5904 2.79221 14.6982 2.24997C14.8061 1.70774 15.0723 1.20967 15.4633 0.818734C15.8543 0.427803 16.3524 0.161574 16.8947 0.0537146C17.437 -0.054145 17.9991 0.00120843 18.5099 0.212776C19.0207 0.424343 19.4573 0.782626 19.7645 1.24231C20.0717 1.70199 20.2356 2.24243 20.2356 2.79529Z" fill="#08BBB7"/>
<path fill-rule="evenodd" clip-rule="evenodd" d="M5.59109 11.0477C5.59108 11.7891 5.29655 12.5001 4.77228 13.0243C4.24802 13.5485 3.53696 13.843 2.79554 13.843C2.24264 13.843 1.70215 13.679 1.24242 13.3719C0.782698 13.0647 0.424383 12.6282 0.212796 12.1174C0.00120855 11.6066 -0.05415 11.0446 0.0537196 10.5023C0.161589 9.9601 0.427842 9.46204 0.81881 9.07111C1.20978 8.68019 1.7079 8.41396 2.25019 8.3061C2.79247 8.19825 3.35456 8.25361 3.86538 8.46519C4.3762 8.67676 4.8128 9.03504 5.11997 9.49473C5.42715 9.95442 5.5911 10.4949 5.59109 11.0477Z" fill="#08BBB7"/>
<path fill-rule="evenodd" clip-rule="evenodd" d="M34.8762 11.0478C34.8762 11.7891 34.5817 12.5001 34.0574 13.0243C33.5332 13.5485 32.8221 13.843 32.0807 13.843C31.5278 13.843 30.9873 13.6791 30.5276 13.3719C30.0678 13.0648 29.7095 12.6282 29.498 12.1174C29.2864 11.6067 29.231 11.0446 29.3389 10.5024C29.4467 9.96015 29.713 9.46208 30.104 9.07116C30.4949 8.68023 30.9931 8.414 31.5353 8.30615C32.0776 8.1983 32.6397 8.25366 33.1505 8.46523C33.6613 8.67681 34.098 9.03509 34.4051 9.49478C34.7123 9.95446 34.8762 10.4949 34.8762 11.0478Z" fill="#08BBB7"/>
<path fill-rule="evenodd" clip-rule="evenodd" d="M20.2356 36.0727C20.2356 36.814 19.9411 37.525 19.4168 38.0492C18.8926 38.5734 18.1815 38.8679 17.4401 38.8679C16.8872 38.8679 16.3467 38.704 15.887 38.3968C15.4272 38.0897 15.0689 37.6531 14.8573 37.1424C14.6457 36.6316 14.5904 36.0695 14.6982 35.5273C14.8061 34.9851 15.0724 34.487 15.4633 34.0961C15.8543 33.7051 16.3524 33.4389 16.8947 33.3311C17.437 33.2232 17.9991 33.2786 18.5099 33.4901C19.0207 33.7017 19.4573 34.06 19.7645 34.5197C20.0717 34.9794 20.2356 35.5198 20.2356 36.0727Z" fill="#08BBB7"/>
<path fill-rule="evenodd" clip-rule="evenodd" d="M5.59109 28.086C5.59108 28.8273 5.29655 29.5383 4.77228 30.0625C4.24802 30.5867 3.53696 30.8812 2.79554 30.8812C2.24264 30.8812 1.70215 30.7173 1.24242 30.4101C0.782698 30.103 0.424383 29.6664 0.212796 29.1556C0.00120855 28.6449 -0.05415 28.0828 0.0537196 27.5406C0.161589 26.9984 0.427842 26.5003 0.81881 26.1094C1.20978 25.7184 1.7079 25.4522 2.25019 25.3444C2.79247 25.2365 3.35456 25.2919 3.86538 25.5035C4.3762 25.715 4.8128 26.0733 5.11997 26.533C5.42715 26.9927 5.5911 27.5331 5.59109 28.086Z" fill="#08BBB7"/>
<path fill-rule="evenodd" clip-rule="evenodd" d="M3.19531 11.8468L15.0429 19.1676L15.7085 17.7034L3.5947 11.1812L3.19531 11.8468Z" fill="#08BBB7"/>
<path fill-rule="evenodd" clip-rule="evenodd" d="M31.6812 27.2872L19.8335 19.9663L19.168 21.4305L31.2818 27.9527L31.6812 27.2872Z" fill="#08BBB7"/>
<path fill-rule="evenodd" clip-rule="evenodd" d="M31.6812 11.8468L19.8335 19.1676L19.168 17.7034L31.2818 11.1812L31.6812 11.8468Z" fill="#08BBB7"/>
<path fill-rule="evenodd" clip-rule="evenodd" d="M17.0397 35.7671L16.7734 21.9634H18.2378L17.8187 35.7671H17.0397Z" fill="#08BBB7"/>
<path fill-rule="evenodd" clip-rule="evenodd" d="M17.0397 3.54346L16.7734 17.3041L18.2948 17.299L17.8385 3.54346H17.0397Z" fill="#08BBB7"/>
<path fill-rule="evenodd" clip-rule="evenodd" d="M34.8762 28.0858C34.8762 28.8272 34.5817 29.5382 34.0574 30.0624C33.5332 30.5866 32.8221 30.8811 32.0807 30.8811C31.5278 30.8811 30.9873 30.7172 30.5276 30.41C30.0678 30.1029 29.7095 29.6663 29.498 29.1555C29.2864 28.6447 29.231 28.0827 29.3389 27.5405C29.4467 26.9982 29.713 26.5002 30.104 26.1092C30.4949 25.7183 30.9931 25.4521 31.5353 25.3442C32.0776 25.2364 32.6397 25.2917 33.1505 25.5033C33.6613 25.7149 34.098 26.0732 34.4051 26.5329C34.7123 26.9925 34.8762 27.533 34.8762 28.0858Z" fill="#08BBB7"/>
</svg>
