<svg width="42" height="42" viewBox="0 0 42 42" fill="none" xmlns="http://www.w3.org/2000/svg">
<circle cx="21" cy="21" r="21" fill="#08BBB7"/>
<path d="M24.8331 11C25.0153 11 25.1933 11.0583 25.3448 11.1676C25.4962 11.2768 25.6143 11.4321 25.684 11.6138C25.7537 11.7955 25.7719 11.9954 25.7364 12.1883C25.7009 12.3812 25.6131 12.5584 25.4843 12.6974L18.0564 20.7169L25.4842 28.7363C25.6569 28.9228 25.7539 29.1757 25.7539 29.4394C25.7539 29.7031 25.6569 29.9561 25.4842 30.1425C25.3115 30.329 25.0772 30.4338 24.833 30.4338C24.5887 30.4338 24.3544 30.329 24.1817 30.1425L16.3867 21.7266C16.1391 21.4586 16 21.0955 16 20.7169C16 20.3383 16.1391 19.9752 16.3867 19.7072L24.1817 11.2913C24.2672 11.1988 24.3687 11.1254 24.4805 11.0754C24.5923 11.0255 24.7121 10.9998 24.8331 11Z" fill="black"/>
</svg>
